<svg width="126" height="112" viewBox="0 0 126 112" fill="none" xmlns="http://www.w3.org/2000/svg">
<rect x="15.0345" width="99.9989" height="59.2586" rx="3.70366" transform="rotate(1.26841 15.0345 0)" fill="url(#paint0_linear_5_598)"/>
<path d="M30.1192 13.6427L29.7029 15.0963L22.6498 14.9402L23.0609 13.4864L30.1192 13.6427ZM26.2739 21.6613L22.7712 17.3003L22.8056 15.9855L24.5833 16.0249C24.9795 16.0337 25.3125 15.9674 25.5823 15.826C25.852 15.6846 26.0563 15.4892 26.1951 15.2397C26.334 14.9902 26.4087 14.7042 26.4193 14.3817C26.4266 13.8977 26.2933 13.5001 26.0195 13.1888C25.7493 12.8741 25.2952 12.7097 24.657 12.6956L22.7004 12.6523L23.1726 10.8157L24.6979 10.8495C25.592 10.8693 26.3341 11.0207 26.9242 11.3039C27.5179 11.5837 27.9583 11.9741 28.2454 12.4751C28.536 12.9762 28.6755 13.5686 28.6639 14.2524C28.647 14.859 28.5335 15.3862 28.3237 15.8341C28.1173 16.2821 27.7986 16.6521 27.3677 16.9443C26.9402 17.2365 26.3865 17.4488 25.7065 17.5811L25.6217 17.6108L28.7533 21.6215L28.7512 21.7161L26.2739 21.6613ZM30.1889 10.971L29.7616 12.4455L23.955 12.3169L24.3823 10.8425L30.1889 10.971ZM31.2231 19.8765L31.2628 18.083L35.9166 11.0979L37.4629 11.1321L37.408 13.6146L36.4928 13.5944L33.5585 18.018L33.5567 18.1022L39.9471 18.2437L39.9067 20.0688L31.2231 19.8765ZM36.3513 21.8844L36.4054 19.444L36.465 18.6507L36.6319 11.1137L38.7673 11.161L38.5288 21.9326L36.3513 21.8844ZM45.6003 22.326C44.6958 22.3025 43.9223 22.0626 43.2799 21.6063C42.641 21.1502 42.1555 20.4992 41.8234 19.6534C41.4948 18.8077 41.3453 17.7958 41.3749 16.6177C41.4009 15.4431 41.5967 14.4458 41.9621 13.626C42.3311 12.8063 42.8447 12.1879 43.5029 11.771C44.1647 11.3506 44.9462 11.1504 45.8474 11.1704C46.7485 11.1903 47.5186 11.4249 48.1577 11.8741C48.8002 12.3233 49.2877 12.9655 49.62 13.8008C49.9524 14.6326 50.1038 15.6358 50.0743 16.8103C50.0481 17.992 49.8504 18.9979 49.4813 19.8282C49.1156 20.6585 48.6035 21.2874 47.945 21.7149C47.2866 22.1423 46.505 22.346 45.6003 22.326ZM45.6422 20.4378C46.2593 20.4515 46.7588 20.1521 47.1407 19.5396C47.5226 18.9271 47.7256 18.0002 47.7496 16.7588C47.7676 15.9419 47.6985 15.2598 47.5423 14.7125C47.3895 14.1654 47.1636 13.7517 46.8646 13.4714C46.5691 13.1913 46.2163 13.0466 45.806 13.0376C45.1924 13.024 44.6947 13.3199 44.3129 13.9254C43.9312 14.5308 43.725 15.4454 43.6944 16.6691C43.6761 17.4966 43.7432 18.1892 43.8957 18.7468C44.0518 19.301 44.2794 19.72 44.5783 20.0038C44.8773 20.2841 45.2319 20.4287 45.6422 20.4378ZM55.7974 22.5518C54.8928 22.5282 54.1193 22.2883 53.4769 21.8321C52.838 21.3759 52.3525 20.725 52.0204 19.8792C51.6919 19.0334 51.5424 18.0216 51.572 16.8435C51.598 15.6688 51.7937 14.6716 52.1592 13.8518C52.5281 13.032 53.0417 12.4137 53.6999 11.9968C54.3618 11.5764 55.1432 11.3762 56.0444 11.3962C56.9455 11.4161 57.7156 11.6507 58.3547 12.0998C58.9973 12.5491 59.4847 13.1913 59.817 14.0266C60.1494 14.8584 60.3008 15.8615 60.2713 17.0361C60.2452 18.2178 60.0475 19.2237 59.6783 20.054C59.3126 20.8843 58.8005 21.5132 58.1421 21.9407C57.4836 22.3681 56.702 22.5718 55.7974 22.5518ZM55.8392 20.6636C56.4563 20.6772 56.9558 20.3778 57.3378 19.7654C57.7197 19.1529 57.9226 18.226 57.9466 16.9846C57.9647 16.1676 57.8956 15.4855 57.7393 14.9383C57.5865 14.3912 57.3607 13.9775 57.0617 13.6972C56.7662 13.417 56.4133 13.2724 56.003 13.2633C55.3894 13.2497 54.8917 13.5457 54.51 14.1512C54.1282 14.7566 53.922 15.6712 53.8914 16.8948C53.8731 17.7223 53.9402 18.4149 54.0928 18.9726C54.2489 19.5268 54.4764 19.9458 54.7753 20.2296C55.0743 20.5098 55.4289 20.6545 55.8392 20.6636Z" fill="white"/>
<path d="M28.4904 27.9712C28.4227 27.7013 28.3205 27.4478 28.1837 27.2106C28.0469 26.9708 27.8753 26.7604 27.6688 26.5796C27.465 26.3961 27.2274 26.2514 26.9562 26.1454C26.6875 26.0395 26.3862 25.9829 26.0522 25.9755C25.5262 25.9638 25.0525 26.0901 24.6309 26.3544C24.2093 26.6187 23.8719 27.0059 23.6185 27.516C23.3678 28.0262 23.2344 28.6441 23.2183 29.37C23.2023 30.0932 23.3096 30.7151 23.5401 31.2359C23.7706 31.7567 24.0932 32.1599 24.5079 32.4453C24.9252 32.7282 25.4061 32.8756 25.9505 32.8877C26.4475 32.8987 26.8891 32.798 27.2753 32.5855C27.6615 32.3731 27.9657 32.0641 28.1878 31.6585C28.4125 31.2531 28.5285 30.7676 28.5358 30.202L28.7708 30.2822L26.1831 30.2249L26.1977 29.5622L29.2667 29.6302L29.252 30.2929C29.2368 30.9819 29.0842 31.5745 28.7943 32.0706C28.5045 32.5667 28.1132 32.9461 27.6207 33.2088C27.1281 33.4716 26.5662 33.5959 25.9351 33.582C25.2303 33.5664 24.6174 33.3831 24.0963 33.0321C23.5753 32.6786 23.1744 32.1882 22.8936 31.561C22.6155 30.9313 22.4857 30.1957 22.5043 29.3541C22.5184 28.7204 22.6152 28.1503 22.7948 27.6438C22.9744 27.1373 23.2221 26.7061 23.5378 26.35C23.8561 25.9939 24.2291 25.7246 24.6568 25.542C25.0845 25.3568 25.5548 25.2698 26.0676 25.2812C26.5094 25.291 26.9115 25.3696 27.274 25.5171C27.639 25.6646 27.9583 25.8637 28.2316 26.1145C28.5076 26.3627 28.7315 26.6478 28.9033 26.97C29.0778 27.2896 29.1926 27.6289 29.2478 27.988L28.4904 27.9712ZM31.253 33.5892L31.3872 27.5302L32.0933 27.5458L31.9591 33.6048L31.253 33.5892ZM31.7692 26.4967C31.6245 26.4935 31.502 26.4421 31.4016 26.3425C31.3013 26.2403 31.2526 26.1195 31.2557 25.9802C31.2588 25.8408 31.3127 25.7236 31.4174 25.6285C31.5222 25.5309 31.6469 25.4837 31.7915 25.4869C31.9362 25.4901 32.0587 25.5428 32.159 25.645C32.2594 25.7445 32.3081 25.864 32.305 26.0034C32.3019 26.1428 32.248 26.2613 32.1432 26.359C32.0385 26.454 31.9138 26.4999 31.7692 26.4967ZM36.4433 27.6421L36.4297 28.2535L33.4515 28.1876L33.465 27.5762L36.4433 27.6421ZM34.2618 33.6558L34.4156 26.7092C34.4229 26.3831 34.5039 26.11 34.6587 25.8898C34.8162 25.6696 35.0185 25.5044 35.2657 25.3941C35.5128 25.2838 35.7731 25.2317 36.0466 25.2377C36.2307 25.2418 36.3829 25.2609 36.5031 25.2952C36.6261 25.3268 36.7228 25.3579 36.7931 25.3884L36.5744 25.9993C36.5221 25.9823 36.4581 25.9625 36.3823 25.9398C36.3065 25.917 36.2108 25.9044 36.095 25.9018C35.79 25.8951 35.5527 25.9753 35.3833 26.1426C35.2138 26.3099 35.1255 26.5526 35.1185 26.8708L34.964 33.6714L34.2618 33.6558ZM40.2312 27.726L40.2176 28.3374L37.3262 28.2734L37.3397 27.662L40.2312 27.726ZM38.2752 26.2303L38.9813 26.2459L38.85 32.1748C38.8444 32.4273 38.8834 32.6268 38.967 32.7734C39.0506 32.9173 39.1615 33.021 39.2995 33.0846C39.4376 33.1455 39.5856 33.1778 39.7433 33.1813C39.8354 33.1833 39.9144 33.1798 39.9804 33.1707C40.0464 33.159 40.1046 33.1472 40.1548 33.1351L40.2907 33.7735C40.2217 33.7983 40.137 33.8201 40.0366 33.8389C39.9362 33.8604 39.8123 33.8695 39.665 33.8662C39.4073 33.8605 39.1601 33.7985 38.9232 33.6801C38.6891 33.5618 38.4982 33.3892 38.3506 33.1623C38.203 32.9353 38.1329 32.6562 38.1402 32.3249L38.2752 26.2303ZM47.1799 34.0681C46.6381 34.0562 46.1691 33.9103 45.7727 33.6305C45.379 33.3508 45.0769 32.9731 44.8664 32.4975C44.6559 32.0218 44.5574 31.4829 44.5707 30.8807C44.5841 30.2732 44.7079 29.7353 44.9419 29.2669C45.1785 28.7985 45.4997 28.4346 45.9054 28.1752C46.3111 27.9132 46.7782 27.7881 47.3068 27.7998C47.7118 27.8087 48.0769 27.8957 48.4022 28.0608C48.7275 28.2232 48.9935 28.4488 49.2002 28.7376C49.4096 29.0237 49.5378 29.3555 49.5847 29.7327L48.8746 29.717C48.8085 29.3735 48.6375 29.0777 48.3615 28.8295C48.0881 28.5788 47.7358 28.4486 47.3045 28.4391C46.9179 28.4305 46.5737 28.5281 46.2719 28.7319C45.9701 28.9331 45.731 29.2185 45.5544 29.5883C45.3805 29.9554 45.2882 30.3835 45.2773 30.8727C45.2664 31.3644 45.3383 31.8015 45.493 32.1838C45.6477 32.5634 45.87 32.863 46.1598 33.0826C46.4522 33.3022 46.797 33.4164 47.1941 33.4252C47.4624 33.4311 47.708 33.3865 47.9312 33.2915C48.157 33.1939 48.3469 33.0534 48.5009 32.87C48.6576 32.6867 48.7651 32.4667 48.8234 32.2102L49.5334 32.2259C49.4727 32.5903 49.3353 32.9135 49.1212 33.1955C48.9098 33.475 48.6379 33.6926 48.3056 33.8484C47.9759 34.0042 47.6007 34.0775 47.1799 34.0681ZM52.6884 34.202C52.3228 34.1939 51.9904 34.1155 51.6912 33.9668C51.3919 33.8154 51.1559 33.6023 50.9831 33.3275C50.8103 33.0501 50.7282 32.7167 50.7368 32.3275C50.7435 32.0277 50.8056 31.7765 50.9232 31.5739C51.0409 31.3713 51.205 31.2065 51.4157 31.0796C51.6263 30.9527 51.8745 30.8543 52.1602 30.7843C52.4459 30.7143 52.7602 30.6621 53.103 30.6276C53.4432 30.593 53.7306 30.5626 53.9654 30.5362C54.2028 30.5099 54.384 30.4639 54.5091 30.3982C54.6342 30.3326 54.6985 30.2235 54.7019 30.071L54.705 29.929C54.7142 29.5161 54.5977 29.1886 54.3558 28.9464C54.1165 28.7017 53.7668 28.5743 53.3066 28.5641C52.87 28.5544 52.5115 28.6425 52.2312 28.8284C51.9534 29.0143 51.7564 29.2362 51.6402 29.4941L50.9789 29.2387C51.123 28.9104 51.3182 28.6503 51.5645 28.4584C51.8108 28.2639 52.0849 28.1266 52.3866 28.0464C52.6884 27.9636 52.9931 27.9257 53.3008 27.9325C53.5322 27.9376 53.7722 27.9732 54.0207 28.0392C54.2718 28.1053 54.5035 28.2156 54.7158 28.3703C54.9282 28.5224 55.0985 28.7327 55.2268 29.0012C55.3551 29.2672 55.4147 29.6027 55.4058 30.0077L55.3147 34.122L54.6125 34.1064L54.6337 33.1479L54.5903 33.1469C54.5022 33.3239 54.3735 33.4947 54.2041 33.6593C54.0347 33.8239 53.8239 33.9574 53.5716 34.0597C53.3194 34.162 53.025 34.2094 52.6884 34.202ZM52.7973 33.5611C53.1707 33.5693 53.496 33.4937 53.7732 33.334C54.0504 33.1744 54.2656 32.9595 54.4189 32.6892C54.5749 32.4164 54.6566 32.1144 54.664 31.783L54.6833 30.9073C54.6296 30.9561 54.5406 30.9988 54.4161 31.0355C54.2942 31.0723 54.1528 31.1047 53.9916 31.1327C53.8332 31.1581 53.6749 31.1796 53.5166 31.1972C53.3584 31.2147 53.2159 31.23 53.0894 31.243C52.7466 31.2775 52.4532 31.3368 52.2093 31.4208C51.9654 31.5049 51.7772 31.6244 51.6449 31.7793C51.5126 31.9316 51.4437 32.13 51.4383 32.3746C51.4301 32.7428 51.5553 33.031 51.8138 33.2393C52.0724 33.445 52.4002 33.5523 52.7973 33.5611ZM57.1825 34.1633L57.3166 28.1043L57.9991 28.1194L57.9785 29.0503L58.0297 29.0515C58.1575 28.7491 58.3733 28.5079 58.6772 28.3278C58.9838 28.1451 59.3278 28.058 59.7091 28.0665C59.767 28.0678 59.8314 28.0705 59.9023 28.0747C59.9733 28.0789 60.0324 28.0828 60.0797 28.0865L60.0639 28.8005C60.0324 28.7946 59.9774 28.7854 59.8987 28.7732C59.8201 28.7609 59.7347 28.7538 59.6427 28.7517C59.3271 28.7447 59.0442 28.8056 58.794 28.9342C58.5466 29.0603 58.3492 29.2388 58.202 29.4697C58.0548 29.7006 57.9779 29.9659 57.9713 30.2657L57.8846 34.1789L57.1825 34.1633ZM63.1362 34.4214C62.6392 34.4104 62.2068 34.2693 61.8392 33.9981C61.4716 33.7268 61.1878 33.3535 60.9879 32.8781C60.7905 32.4028 60.6988 31.8522 60.7127 31.2263C60.7265 30.603 60.8424 30.0596 61.0605 29.5961C61.2813 29.13 61.5827 28.771 61.9645 28.519C62.3464 28.2643 62.7871 28.1425 63.2868 28.1536C63.655 28.1617 63.9599 28.2343 64.2015 28.3712C64.4433 28.5054 64.6356 28.6702 64.7787 28.8654C64.9217 29.0607 65.0319 29.2499 65.1094 29.4332L65.1726 29.4346L65.2429 26.2591L65.949 26.2747L65.7701 34.3535L65.0837 34.3383L65.1086 33.214L65.0258 33.2122C64.9402 33.3945 64.8203 33.5813 64.6661 33.7726C64.5119 33.9612 64.3098 34.1185 64.0597 34.2446C63.8122 34.3706 63.5044 34.4296 63.1362 34.4214ZM63.2333 33.7803C63.6251 33.789 63.9614 33.6899 64.2423 33.483C64.5232 33.2734 64.7401 32.9822 64.8931 32.6094C65.0487 32.2339 65.132 31.8017 65.1428 31.3125C65.1535 30.8286 65.0907 30.3997 64.9542 30.0257C64.8179 29.6491 64.614 29.3525 64.3425 29.136C64.0711 28.9169 63.7381 28.8029 63.3437 28.7942C62.9387 28.7852 62.5943 28.8881 62.3107 29.1028C62.0297 29.315 61.8128 29.6062 61.6599 29.9764C61.5096 30.3467 61.4293 30.7646 61.419 31.2301C61.4086 31.7008 61.4715 32.1271 61.6078 32.509C61.744 32.8909 61.9477 33.1967 62.2189 33.4263C62.4928 33.6534 62.8309 33.7714 63.2333 33.7803Z" fill="white" fill-opacity="0.6"/>
<path d="M102.75 50.266L103.14 53.8067L105.73 54.2089L103.126 54.4128L102.58 57.9327L102.19 54.3921L99.5971 54.0731L102.203 53.7859L102.75 50.266Z" fill="#FFBF35" fill-opacity="0.4"/>
<path d="M102.39 31.8489L103.1 36.8095L107.636 37.3928L103.081 37.658L102.152 42.5823L101.442 37.6217L96.903 37.1551L101.461 36.7732L102.39 31.8489Z" fill="#FFBF35" fill-opacity="0.2"/>
<path d="M108.429 18.9427L108.784 21.423L111.052 21.7146L108.774 21.8473L108.31 24.3094L107.955 21.8291L105.685 21.5958L107.964 21.4048L108.429 18.9427Z" fill="#FFBF35" fill-opacity="0.1"/>
<path d="M63.9816 51.7085L64.3367 54.1887L66.6048 54.4804L64.3273 54.613L63.8627 57.0751L63.5076 54.5949L61.2382 54.3616L63.517 54.1706L63.9816 51.7085Z" fill="#FFBF35" fill-opacity="0.1"/>
<path d="M94.1532 40.1038L94.9922 47.1864L100.498 47.9981L94.9653 48.3986L93.8137 55.4371L92.9747 48.3545L87.4649 47.7095L93.0015 47.1423L94.1532 40.1038Z" fill="#FFBF35" fill-opacity="0.4"/>
<path d="M72.517 47.2954L73.075 51.193L76.6393 51.6513L73.0603 51.8597L72.3302 55.7287L71.7722 51.8312L68.2059 51.4645L71.787 51.1644L72.517 47.2954Z" fill="#FFBF35" fill-opacity="0.2"/>
<rect y="39.1538" width="121.664" height="72.0972" rx="4.50608" transform="rotate(-2.83101 0 39.1538)" fill="url(#paint1_linear_5_598)"/>
<path d="M19.5402 55.3638L19.1614 57.1641L10.5886 57.5881L10.961 55.7881L19.5402 55.3638ZM15.5712 65.4292L10.9411 60.4416L10.8685 58.8431L13.0293 58.7363C13.5109 58.7124 13.9092 58.603 14.2243 58.408C14.5393 58.213 14.7702 57.958 14.917 57.6432C15.0638 57.3283 15.1296 56.9747 15.1145 56.5824C15.0811 55.9945 14.8848 55.5236 14.5255 55.1696C14.1703 54.8112 13.6048 54.6512 12.8292 54.6896L10.451 54.8072L10.8643 52.5374L12.7182 52.4457C13.805 52.3919 14.7188 52.5112 15.4595 52.8036C16.2043 53.0914 16.7727 53.5269 17.1647 54.1099C17.5609 54.6927 17.7817 55.3995 17.8271 56.2304C17.8593 56.9679 17.7675 57.6176 17.5518 58.1794C17.3403 58.741 16.9858 59.2178 16.4882 59.6098C15.9949 60.0016 15.3414 60.3074 14.5277 60.527L14.4273 60.5704L18.5765 65.1652L18.5822 65.2803L15.5712 65.4292ZM19.3924 52.1156L19.0021 53.9421L11.9443 54.2911L12.3346 52.4646L19.3924 52.1156ZM26.5246 65.067C25.6211 65.1117 24.8074 64.9853 24.0835 64.6878C23.3638 64.3902 22.7829 63.9596 22.3406 63.3962C21.8983 62.8328 21.65 62.1743 21.5956 61.4208L24.2806 61.288C24.3355 61.7937 24.569 62.1944 24.9809 62.4902C25.3929 62.786 25.8716 62.9204 26.4172 62.8934C26.8519 62.8719 27.2307 62.7571 27.5536 62.5488C27.8806 62.3361 28.1294 62.0525 28.2998 61.698C28.4743 61.3391 28.5504 60.9337 28.5281 60.482C28.5053 60.0217 28.3873 59.6216 28.1739 59.2819C27.9649 58.9419 27.685 58.6823 27.3344 58.5031C26.9837 58.3239 26.5888 58.243 26.1496 58.2605C25.766 58.2794 25.397 58.3767 25.0425 58.5523C24.6923 58.7277 24.4238 58.9568 24.237 59.2394L21.7539 58.92L22.0326 51.9851L30.0365 51.5893L30.1484 53.8524L24.4268 54.1353L24.2501 57.4316L24.3269 57.4278C24.541 57.0925 24.8751 56.8068 25.3291 56.5708C25.7831 56.3347 26.2978 56.2024 26.8731 56.174C27.6616 56.135 28.374 56.2856 29.0103 56.6258C29.6466 56.9661 30.1598 57.4512 30.5498 58.0813C30.9396 58.7072 31.1532 59.44 31.1904 60.2798C31.2383 61.1618 31.0725 61.9561 30.693 62.6627C30.3176 63.3649 29.7709 63.9302 29.053 64.3588C28.3391 64.7829 27.4964 65.0189 26.5246 65.067ZM38.4847 64.5845C37.3849 64.6346 36.4254 64.4108 35.6061 63.913C34.7911 63.415 34.1453 62.6672 33.6687 61.6697C33.1964 60.6719 32.927 59.457 32.8605 58.0247C32.7899 56.597 32.9406 55.3698 33.3128 54.3431C33.6893 53.3162 34.2588 52.5212 35.0213 51.958C35.7879 51.3903 36.7188 51.0794 37.8142 51.0252C38.9095 50.9711 39.8644 51.1887 40.679 51.6782C41.4979 52.1675 42.1452 52.9045 42.6212 53.8892C43.0969 54.8697 43.3679 56.0739 43.4343 57.5019C43.5053 58.9381 43.3529 60.1761 42.9771 61.2158C42.6055 62.2552 42.0388 63.063 41.2769 63.639C40.515 64.2149 39.5842 64.5301 38.4847 64.5845ZM38.3712 62.2895C39.1213 62.2524 39.7014 61.8456 40.1116 61.0691C40.5218 60.2926 40.6875 59.1501 40.6086 57.6416C40.5595 56.6486 40.4163 55.8268 40.1791 55.1763C39.9461 54.5256 39.636 54.0433 39.2488 53.7292C38.8658 53.4149 38.425 53.27 37.9264 53.2947C37.1805 53.3316 36.6023 53.734 36.1917 54.502C35.7811 55.2699 35.6104 56.3977 35.6797 57.8853C35.7294 58.8911 35.8711 59.7258 36.1047 60.3893C36.3424 61.0483 36.6549 61.537 37.0424 61.8553C37.4296 62.1694 37.8725 62.3141 38.3712 62.2895ZM50.8788 63.9716C49.7791 64.0217 48.8195 63.7979 48.0003 63.3001C47.1853 62.8021 46.5395 62.0543 46.0629 61.0568C45.5906 60.059 45.3212 58.8441 45.2546 57.4118C45.184 55.9841 45.3348 54.7569 45.707 53.7302C46.0835 52.7033 46.653 51.9083 47.4155 51.3451C48.1821 50.7774 49.113 50.4665 50.2083 50.4123C51.3036 50.3582 52.2586 50.5758 53.0732 51.0653C53.892 51.5546 54.5394 52.2916 55.0153 53.2763C55.4911 54.2568 55.7621 55.461 55.8284 56.889C55.8995 58.3252 55.7471 59.5632 55.3712 60.6029C54.9997 61.6423 54.4329 62.4501 53.6711 63.026C52.9092 63.602 51.9784 63.9172 50.8788 63.9716ZM50.7654 61.6766C51.5154 61.6395 52.0956 61.2327 52.5058 60.4562C52.916 59.6797 53.0817 58.5372 53.0028 57.0287C52.9537 56.0357 52.8105 55.2139 52.5733 54.5634C52.3403 53.9127 52.0302 53.4304 51.643 53.1163C51.26 52.802 50.8192 52.6571 50.3206 52.6818C49.5747 52.7187 48.9965 53.1211 48.5859 53.8891C48.1753 54.657 48.0046 55.7848 48.0739 57.2724C48.1236 58.2782 48.2653 59.1129 48.4989 59.7764C48.7366 60.4354 49.0491 60.924 49.4365 61.2424C49.8238 61.5565 50.2667 61.7012 50.7654 61.6766Z" fill="white"/>
<path d="M18.743 71.5451C18.6373 71.2235 18.4912 70.9247 18.3045 70.6487C18.1177 70.3696 17.8911 70.1293 17.6248 69.9278C17.3615 69.7229 17.0607 69.5679 16.7222 69.4629C16.387 69.3577 16.0164 69.3152 15.6105 69.3353C14.9712 69.3669 14.4072 69.5614 13.9186 69.9188C13.43 70.2762 13.0542 70.7754 12.7911 71.4164C12.5312 72.0573 12.4231 72.8189 12.4667 73.7011C12.5102 74.5801 12.6944 75.3256 13.0195 75.9376C13.3445 76.5495 13.7711 77.0107 14.2991 77.321C14.8302 77.628 15.4265 77.7651 16.0882 77.7324C16.6923 77.7025 17.2195 77.5419 17.6697 77.2505C18.1199 76.959 18.4621 76.5576 18.6964 76.0462C18.9338 75.5346 19.0324 74.9353 18.992 74.2484L19.2842 74.3252L16.1389 74.4808L16.099 73.6753L19.8293 73.4908L19.8691 74.2963C19.9105 75.1338 19.7769 75.8662 19.4683 76.4934C19.1597 77.1207 18.7179 77.6152 18.143 77.9768C17.5681 78.3385 16.8971 78.5383 16.1299 78.5763C15.2733 78.6186 14.5135 78.4495 13.8506 78.0689C13.1876 77.6852 12.6584 77.125 12.2631 76.3883C11.8709 75.6483 11.6495 74.7669 11.5989 73.744C11.5608 72.9737 11.6287 72.2734 11.8026 71.6432C11.9765 71.0129 12.2395 70.468 12.5917 70.0084C12.9471 69.5487 13.3763 69.1894 13.8794 68.9306C14.3823 68.6686 14.9454 68.5222 15.5687 68.4914C16.1057 68.4648 16.6006 68.5253 17.0533 68.6727C17.5091 68.82 17.9138 69.0339 18.2674 69.3144C18.6239 69.5916 18.9204 69.9182 19.1569 70.2942C19.3964 70.6668 19.5653 71.0686 19.6635 71.4996L18.743 71.5451ZM22.5841 78.1225L22.2199 70.7579L23.0781 70.7155L23.4423 78.0801L22.5841 78.1225ZM22.5936 69.4706C22.4178 69.4793 22.2646 69.4276 22.1341 69.3155C22.0035 69.2002 21.934 69.0578 21.9256 68.8884C21.9172 68.719 21.9724 68.5721 22.0912 68.4476C22.2099 68.32 22.3571 68.2518 22.5329 68.2431C22.7087 68.2344 22.862 68.2877 22.9926 68.403C23.1231 68.5152 23.1926 68.6559 23.2009 68.8253C23.2093 68.9947 23.1542 69.1433 23.0355 69.2709C22.9167 69.3953 22.7694 69.4619 22.5936 69.4706ZM28.3654 70.454L28.4022 71.1972L24.7822 71.3762L24.7455 70.633L28.3654 70.454ZM26.2412 77.9417L25.8237 69.4983C25.8041 69.1019 25.8786 68.7634 26.0474 68.4827C26.2194 68.2018 26.4505 67.9837 26.7408 67.8284C27.0311 67.673 27.3425 67.5871 27.6749 67.5707C27.8987 67.5596 28.085 67.5697 28.234 67.6007C28.3859 67.6285 28.5059 67.6578 28.594 67.6887L28.3816 68.449C28.3168 68.433 28.2373 68.4145 28.1434 68.3935C28.0494 68.3725 27.9321 68.3655 27.7915 68.3724C27.4207 68.3908 27.1397 68.5088 26.9486 68.7265C26.7575 68.9442 26.6716 69.2465 26.6907 69.6333L27.0946 77.8995L26.2412 77.9417ZM32.9695 70.2264L33.0062 70.9695L29.4918 71.1433L29.455 70.4002L32.9695 70.2264ZM30.4657 68.5814L31.324 68.539L31.6803 75.7453C31.6955 76.0522 31.7602 76.2909 31.8744 76.4615C31.9884 76.6289 32.1319 76.7452 32.305 76.8103C32.4779 76.8723 32.6602 76.8985 32.852 76.889C32.9639 76.8835 33.0594 76.8723 33.1387 76.8556C33.2178 76.8357 33.2874 76.8162 33.3473 76.7972L33.5677 77.5601C33.4861 77.5962 33.3853 77.63 33.2651 77.6616C33.145 77.6964 32.9955 77.7182 32.8165 77.7271C32.5033 77.7426 32.1978 77.6888 31.9001 77.5657C31.6057 77.4425 31.359 77.2496 31.1602 76.9871C30.9613 76.7245 30.852 76.3919 30.8321 75.9892L30.4657 68.5814ZM41.9537 77.3185C41.2952 77.351 40.7133 77.2148 40.208 76.9098C39.7058 76.6045 39.3064 76.1725 39.0096 75.6136C38.7128 75.0547 38.5463 74.4093 38.5101 73.6773C38.4736 72.9389 38.5769 72.2754 38.8202 71.6866C39.0666 71.0976 39.4247 70.6281 39.8944 70.278C40.364 69.9248 40.92 69.7323 41.5625 69.7005C42.0548 69.6761 42.5054 69.75 42.9145 69.922C43.3233 70.0909 43.6658 70.3415 43.9418 70.6739C44.2208 71.0029 44.4051 71.3944 44.4949 71.8481L43.6318 71.8908C43.5218 71.4797 43.2885 71.1356 42.9319 70.8584C42.5784 70.5779 42.1395 70.4506 41.6153 70.4765C41.1454 70.4997 40.7362 70.6482 40.3877 70.9217C40.039 71.1921 39.7736 71.5593 39.5914 72.0233C39.4123 72.484 39.3375 73.0116 39.3669 73.6061C39.3965 74.2038 39.5217 74.7279 39.7426 75.1784C39.9634 75.6257 40.2592 75.97 40.63 76.2112C41.004 76.4522 41.4324 76.5608 41.915 76.537C42.241 76.5208 42.5353 76.4454 42.7978 76.3107C43.0633 76.1726 43.2816 75.9855 43.4526 75.7496C43.6267 75.5135 43.738 75.2372 43.7865 74.9208L44.6495 74.8781C44.6076 75.3256 44.4689 75.7298 44.2336 76.0907C44.0014 76.4482 43.6904 76.7359 43.3006 76.9539C42.9141 77.1717 42.4651 77.2932 41.9537 77.3185ZM48.6501 77.0018C48.2058 77.0237 47.7956 76.9575 47.4195 76.8031C47.0432 76.6454 46.7382 76.4074 46.5046 76.0889C46.2708 75.7672 46.1422 75.3698 46.1188 74.8968C46.1008 74.5324 46.1543 74.2221 46.2794 73.966C46.4046 73.7099 46.5894 73.4957 46.834 73.3234C47.0786 73.1511 47.3713 73.01 47.7119 72.9002C48.0525 72.7905 48.4294 72.6998 48.8424 72.6281C49.2522 72.5565 49.5984 72.4945 49.881 72.4421C50.1667 72.3895 50.3827 72.318 50.5288 72.2274C50.6749 72.1369 50.7434 71.9989 50.7342 71.8135L50.7257 71.6409C50.7009 71.1391 50.5311 70.7518 50.2164 70.4789C49.9048 70.2028 49.4693 70.0785 48.9099 70.1062C48.3793 70.1324 47.952 70.2705 47.6279 70.5204C47.307 70.7702 47.0872 71.0567 46.9686 71.3797L46.1439 71.1273C46.2902 70.7164 46.5044 70.3837 46.7866 70.1295C47.0687 69.872 47.3893 69.6815 47.7485 69.558C48.1075 69.4313 48.474 69.3587 48.848 69.3402C49.1293 69.3263 49.4236 69.3486 49.7309 69.4071C50.0414 69.4655 50.3322 69.5792 50.6033 69.7485C50.8742 69.9145 51.0992 70.1549 51.2782 70.4697C51.457 70.7813 51.5586 71.1832 51.583 71.6755L51.8302 76.6763L50.9768 76.7185L50.9192 75.5534L50.8664 75.556C50.7749 75.7784 50.6335 75.9969 50.4422 76.2114C50.251 76.4259 50.0068 76.6062 49.7096 76.7523C49.4124 76.8984 49.0592 76.9815 48.6501 77.0018ZM48.7265 76.2145C49.1804 76.1921 49.5686 76.072 49.8911 75.8541C50.2135 75.6363 50.4561 75.3568 50.6186 75.0155C50.7842 74.6709 50.8571 74.2972 50.8371 73.8944L50.7845 72.83C50.7236 72.8939 50.6192 72.9535 50.4713 73.0089C50.3267 73.0641 50.1578 73.1157 49.9647 73.1637C49.7747 73.2084 49.5844 73.2482 49.3939 73.2833C49.2033 73.3183 49.0318 73.3493 48.8793 73.376C48.4663 73.4477 48.1155 73.5452 47.8268 73.6684C47.5381 73.7916 47.3202 73.953 47.173 74.1525C47.0257 74.3489 46.9594 74.5957 46.9741 74.8929C46.9963 75.3404 47.1732 75.6793 47.505 75.9097C47.8367 76.1368 48.2439 76.2384 48.7265 76.2145ZM54.1005 76.564L53.7363 69.1994L54.5658 69.1584L54.6218 70.2899L54.6841 70.2869C54.8128 69.9088 55.0537 69.5973 55.4069 69.3523C55.7631 69.104 56.173 68.9684 56.6364 68.9455C56.7068 68.942 56.7851 68.9397 56.8716 68.9386C56.9581 68.9376 57.0301 68.9372 57.0878 68.9376L57.1308 69.8054C57.0921 69.8009 57.0245 69.7946 56.928 69.7866C56.8314 69.7785 56.7272 69.7773 56.6154 69.7828C56.2318 69.8018 55.8938 69.9002 55.6014 70.0781C55.312 70.2526 55.0881 70.4864 54.9295 70.7794C54.771 71.0724 54.7007 71.4011 54.7188 71.7655L54.954 76.5218L54.1005 76.564ZM61.348 76.3594C60.7439 76.3893 60.207 76.2556 59.7373 75.9584C59.2676 75.6612 58.8907 75.2329 58.6067 74.6734C58.3259 74.1137 58.1667 73.4535 58.1291 72.6927C58.0916 71.9352 58.1851 71.2657 58.4095 70.6842C58.6369 70.0994 58.9713 69.6375 59.4127 69.2984C59.854 68.9562 60.3783 68.77 60.9857 68.74C61.4332 68.7179 61.8095 68.7794 62.1147 68.9245C62.4197 69.0664 62.6675 69.2496 62.858 69.4741C63.0485 69.6986 63.1988 69.9187 63.3088 70.1343L63.3855 70.1305L63.1946 66.2708L64.0529 66.2284L64.5385 76.0478L63.7042 76.0891L63.6366 74.7226L63.5359 74.7276C63.4479 74.9563 63.3187 75.1933 63.1482 75.4389C62.9775 75.6812 62.7459 75.8898 62.4533 76.0644C62.164 76.239 61.7955 76.3373 61.348 76.3594ZM61.4101 75.5729C61.8863 75.5494 62.2859 75.3998 62.6087 75.1243C62.9314 74.8456 63.1693 74.4734 63.3225 74.0076C63.4787 73.5384 63.5422 73.0066 63.5128 72.4121C63.4837 71.8239 63.3701 71.3089 63.172 70.8669C62.9737 70.4217 62.7005 70.0795 62.3522 69.8404C62.0038 69.5981 61.5898 69.4888 61.1104 69.5125C60.6181 69.5368 60.2092 69.6916 59.8837 69.9769C59.5612 70.2588 59.3232 70.631 59.1699 71.0936C59.0197 71.556 58.9586 72.0701 58.9866 72.6359C59.0149 73.2081 59.1283 73.7199 59.3269 74.1715C59.5255 74.6231 59.7993 74.9765 60.1483 75.2316C60.5004 75.4833 60.921 75.5971 61.4101 75.5729Z" fill="white" fill-opacity="0.6"/>
<path d="M110.818 92.5247L111.599 96.7874L114.778 97.0503L111.635 97.5242L111.278 101.843L110.497 97.5805L107.323 97.4189L110.46 96.8438L110.818 92.5247Z" fill="#FFBF35" fill-opacity="0.4"/>
<path d="M108.78 70.2059L110.073 76.1639L115.629 76.4772L110.124 77.1953L109.425 83.2519L108.131 77.2939L102.583 77.1224L108.08 76.2625L108.78 70.2059Z" fill="#FFBF35" fill-opacity="0.2"/>
<path d="M114.985 54.0189L115.632 56.9979L118.41 57.1546L115.657 57.5136L115.308 60.5419L114.661 57.5629L111.887 57.4771L114.636 57.0472L114.985 54.0189Z" fill="#FFBF35" fill-opacity="0.1"/>
<path d="M63.8966 97.6473L64.5433 100.626L67.3212 100.783L64.5688 101.142L64.2192 104.17L63.5725 101.191L60.7982 101.106L63.547 100.676L63.8966 97.6473Z" fill="#FFBF35" fill-opacity="0.1"/>
<path d="M99.5019 80.9403L101.136 89.4624L107.889 89.9686L101.209 90.9359L100.423 99.5776L98.7893 91.0555L92.0469 90.7519L98.7165 89.582L99.5019 80.9403Z" fill="#FFBF35" fill-opacity="0.4"/>
<path d="M73.8707 91.5493L74.8869 96.2306L79.2521 96.4768L74.9269 97.041L74.3776 101.8L73.3613 97.1184L69.0016 96.9837L73.3213 96.308L73.8707 91.5493Z" fill="#FFBF35" fill-opacity="0.2"/>
<defs>
<linearGradient id="paint0_linear_5_598" x1="14.8851" y1="29.9074" x2="115.343" y2="29.9074" gradientUnits="userSpaceOnUse">
<stop stop-color="#EA7611"/>
<stop offset="1" stop-color="#F25B1B"/>
</linearGradient>
<linearGradient id="paint1_linear_5_598" x1="-0.18177" y1="75.5408" x2="122.041" y2="75.5408" gradientUnits="userSpaceOnUse">
<stop stop-color="#196CD9"/>
<stop offset="1" stop-color="#0D3973"/>
</linearGradient>
</defs>
</svg>
